<svg width="38" height="33" viewBox="0 0 38 33" fill="none" xmlns="http://www.w3.org/2000/svg">
<path d="M30.8628 29.564C31.2121 29.7184 31.2311 29.7361 31.4865 29.4626C32.2307 28.6667 33.03 27.9112 33.6803 27.0386C36.5311 23.2136 37.9209 18.3862 37.0039 13.6276C36.1951 9.43179 34.7094 5.70487 31.4381 3.15391C27.1671 0.196944 23.8778 0.0814379 19.7844 0.0814379C17.4025 -0.0661301 12.5687 -0.0856 10.2809 0.66011C6.73996 1.81508 5.33872 2.98666 3.01862 6C-0.41716 10.5 -0.226569 15.5 0.28429 19.5815C0.864315 23.5491 3.11741 26.8517 5.98716 29.5059C6.2093 29.7115 6.40486 29.6731 6.66877 29.5384C6.09254 29.2275 5.597 28.8694 5.18215 28.2742C5.44416 28.2998 5.62928 28.3175 5.81154 28.3362C5.29892 27.6544 4.78819 26.9756 4.27746 26.2968L4.35436 26.2024H4.72649C4.59453 26.045 4.49296 25.9249 4.34676 25.7518C4.69421 25.7085 4.979 25.6731 5.29322 25.6337C5.09577 25.2058 4.9097 24.8024 4.69326 24.3322C5.16317 24.4109 5.53719 24.4738 5.90363 24.5348C5.64541 23.859 5.3967 23.2097 5.14893 22.5614C5.1793 22.5427 5.20968 22.524 5.24006 22.5063C5.65301 22.7148 6.06595 22.9224 6.52067 23.1516C6.56909 22.5387 6.61276 21.9917 6.65737 21.4221C6.52067 21.4389 6.41245 21.4526 6.25202 21.4733C6.28525 21.1496 6.31562 20.8535 6.34505 20.5633H5.55808C5.71756 20.1983 5.85521 19.8825 5.99286 19.5667C5.75079 19.4614 5.51631 19.3591 5.20683 19.2244C5.56567 18.9578 5.85426 18.7423 6.10868 18.5534C5.83433 17.79 5.57517 17.0708 5.29322 16.2878H6.06596C5.93495 15.9011 5.81249 15.5411 5.6663 15.1092C5.82293 15.1761 5.87609 15.1987 5.94444 15.2282C5.89508 14.9842 5.85236 14.7717 5.79635 14.4973C6.09444 14.6409 6.32701 14.753 6.53491 14.8534C6.53491 14.5356 6.49314 14.2513 6.54251 13.9857C6.72952 12.9793 6.8966 11.965 7.16335 10.9802C7.65794 9.15334 8.35283 7.40908 9.48156 5.88815C9.72553 5.55956 10.0094 5.26344 10.2809 4.94568C10.3597 5.03422 10.3862 5.05783 10.4043 5.08636C11.6991 7.12772 12.9892 9.17203 14.2888 11.2104C14.7198 11.8863 15.2258 12.4992 15.9245 12.8878C16.1846 13.0324 16.4998 13.1367 16.7922 13.1426C18.032 13.1662 19.2727 13.1318 20.5134 13.1495C20.9197 13.1554 21.3004 13.0973 21.607 12.8356C22.0342 12.4697 22.5022 12.1135 22.8165 11.6531C24.0002 9.91872 25.1328 8.14692 26.2748 6.38201C26.5691 5.92652 26.8292 5.44741 27.1671 4.87485C27.6275 5.49857 28.0756 6.03178 28.443 6.61812C29.491 8.29154 30.1214 10.1489 30.5562 12.0781C30.7603 12.9852 31.0469 13.8893 30.8837 14.8662C31.1238 14.7521 31.3583 14.6399 31.6488 14.5022C31.5852 14.7983 31.5396 15.0098 31.4922 15.2341C31.5767 15.2036 31.6346 15.183 31.7751 15.1328C31.6222 15.5666 31.496 15.9247 31.3621 16.3045H32.1434C31.8576 17.0915 31.5918 17.8215 31.3251 18.5564C31.6042 18.76 31.8861 18.9656 32.2421 19.2253C31.9136 19.3631 31.6792 19.4624 31.4381 19.5638C31.5823 19.8874 31.7238 20.2013 31.8861 20.5643H31.0916C31.1229 20.8712 31.1533 21.1585 31.1855 21.4743C31.027 21.4546 30.9188 21.4408 30.7821 21.4241C30.8277 22.0026 30.8704 22.5555 30.9178 23.1585C31.3782 22.9254 31.7893 22.7168 32.2003 22.5092C32.2298 22.5328 32.2592 22.5555 32.2886 22.5791C32.0389 23.2244 31.7902 23.8698 31.5292 24.5457C31.9156 24.4778 32.2886 24.4119 32.7519 24.3312C32.5288 24.8132 32.3408 25.2196 32.1462 25.6386C32.4623 25.677 32.7471 25.7114 33.087 25.7528C32.9398 25.9308 32.8402 26.0518 32.7187 26.1994C32.8705 26.2083 32.9835 26.2151 33.2227 26.2289C32.6494 26.9864 32.1367 27.6633 31.6213 28.3441C31.813 28.3244 31.9981 28.3057 32.1832 28.287L32.2487 28.409C31.7874 28.7936 31.327 29.1793 30.8618 29.5669L30.8628 29.564ZM21.1141 15.243C20.2703 15.243 19.6306 15.0511 18.6993 15.1092C17.6238 15.1761 18.1611 15.243 16.6143 15.3894C16.1994 16.2256 18.3017 16.1215 18.4423 19.0499C19.286 19.8235 18.5256 19.6884 19.286 19.0499C19.286 15.6822 21.5403 16.0792 21.1141 15.243ZM18.2066 28.407C18.1981 28.6736 18.388 28.8969 18.6993 28.9107C19.0534 28.9265 19.229 28.6658 19.2537 28.2899C19.3249 28.3086 19.3667 28.3185 19.4075 28.3293C19.661 28.4001 20.1556 28.1945 20.2002 27.9978C20.2505 27.7784 19.9344 27.4724 19.5888 27.4616C18.9993 27.4419 18.4079 27.4419 17.8193 27.4675C17.6684 27.4744 17.4985 27.5797 17.3798 27.6889C17.1747 27.8777 17.1776 28.0912 17.4595 28.2024C17.675 28.288 17.9086 28.3273 18.2057 28.406L18.2066 28.407ZM14.3392 22.9076C13.9158 22.9106 13.5607 23.3051 13.5674 23.7665C13.574 24.1984 13.912 24.5329 14.3439 24.5339C14.8451 24.5339 15.1651 24.2299 15.1651 23.7527C15.1651 23.2687 14.8081 22.9037 14.3392 22.9076ZM25.1888 24.5319C25.6853 24.5299 26.0147 24.2122 26.0052 23.7449C25.9957 23.2667 25.6264 22.8978 25.165 22.9047C24.7312 22.9116 24.4141 23.2628 24.4132 23.736C24.4132 24.2062 24.7312 24.5329 25.1888 24.5319ZM11.7381 19.9691C11.5928 20.3242 11.7542 21.185 12.0399 21.4438C12.244 21.6287 12.4614 21.6209 12.6456 21.4202C12.8193 21.2313 12.825 21.004 12.6437 20.821C12.3504 20.5239 12.0361 20.2475 11.7381 19.9691ZM25.7033 19.9711C25.4052 20.2495 25.0919 20.5249 24.7986 20.821C24.6163 21.005 24.6258 21.2283 24.7986 21.4182C24.9828 21.6209 25.1983 21.6287 25.4014 21.4438C25.691 21.1811 25.8514 20.3213 25.7033 19.9711ZM21.2197 30.7957C21.44 31.2206 21.6507 31.6279 21.8852 32.0815C22.264 31.6938 22.5098 31.3112 22.5763 30.7957H21.2197ZM22.5554 20.5033C22.2279 20.8102 21.9374 21.0788 21.6507 21.3523C21.4571 21.5372 21.4523 21.8294 21.6346 22.0095C21.8216 22.1944 22.114 22.1905 22.263 21.9662C22.5564 21.5235 22.6389 21.0286 22.5554 20.5033ZM14.8917 20.5043C14.8034 21.0119 14.8945 21.4851 15.147 21.9199C15.2942 22.1737 15.5894 22.2072 15.7944 22.0262C15.9824 21.8589 15.9976 21.549 15.8115 21.368C15.5201 21.0847 15.2192 20.8112 14.8917 20.5043ZM15.4423 32.0549C15.4916 32.0451 15.5419 32.0362 15.5913 32.0264C15.7982 31.621 16.0052 31.2157 16.2207 30.7957H14.7701C15.0198 31.263 15.2306 31.6584 15.4423 32.0549ZM24.1227 19.8235C23.8028 20.1235 23.5038 20.398 23.2114 20.6794C23.0244 20.8594 23.031 21.1634 23.2171 21.3365C23.4107 21.5176 23.7183 21.4851 23.8664 21.2372C24.1265 20.8033 24.2148 20.3291 24.1237 19.8225L24.1227 19.8235ZM13.313 19.8136C13.2475 20.3488 13.3044 20.8594 13.6291 21.2982C13.7914 21.5176 14.0354 21.5097 14.2319 21.3257C14.4161 21.1516 14.4436 20.9115 14.2708 20.7266C13.9784 20.4128 13.6519 20.1334 13.313 19.8136Z" fill="url(#paint0_linear_2_192)"/>
<defs>
<linearGradient id="paint0_linear_2_192" x1="0.642833" y1="30.8476" x2="37.6625" y2="29.8325" gradientUnits="userSpaceOnUse">
<stop stop-color="#9350DB"/>
<stop offset="0.5" stop-color="#5288FD"/>
<stop offset="1" stop-color="#2EC1F4"/>
</linearGradient>
</defs>
</svg>
